<?xml version="1.0" encoding="UTF-8" standalone="no"?>
<svg
   viewBox="0 0 87.999997 88"
   version="1.1"
   id="svg14"
   sodipodi:docname="drive.svg"
   width="88"
   height="88"
   inkscape:version="1.1.1 (3bf5ae0d25, 2021-09-20)"
   xmlns:inkscape="http://www.inkscape.org/namespaces/inkscape"
   xmlns:sodipodi="http://sodipodi.sourceforge.net/DTD/sodipodi-0.dtd"
   xmlns="http://www.w3.org/2000/svg"
   xmlns:svg="http://www.w3.org/2000/svg">
  <defs
     id="defs18" />
  <sodipodi:namedview
     id="namedview16"
     pagecolor="#ffffff"
     bordercolor="#666666"
     borderopacity="1.0"
     inkscape:pageshadow="2"
     inkscape:pageopacity="0.0"
     inkscape:pagecheckerboard="0"
     showgrid="false"
     width="88px"
     inkscape:zoom="9.2179487"
     inkscape:cx="43.664812"
     inkscape:cy="45.50904"
     inkscape:window-width="1920"
     inkscape:window-height="1131"
     inkscape:window-x="0"
     inkscape:window-y="32"
     inkscape:window-maximized="1"
     inkscape:current-layer="svg14" />
  <path
     d="m 9.9015013,68.807659 3.5584287,6.146378 c 0.739415,1.293974 1.802322,2.310669 3.050083,3.050082 L 29.218689,56.006556 H 3.8013367 c 0,1.432615 0.369707,2.865229 1.1091208,4.159203 z"
     fill="#0066da"
     id="path2"
     style="stroke-width:0.924268" />
  <path
     d="M 44.145607,30.12707 31.436931,8.1295072 C 30.18917,8.8689211 29.126263,9.8856153 28.386849,11.179589 L 4.9104575,51.847353 A 8.3738624,8.3738624 0 0 0 3.8013367,56.006556 H 29.218689 Z"
     fill="#00ac47"
     id="path4"
     style="stroke-width:0.924268" />
  <path
     d="m 71.781202,78.004119 c 1.24776,-0.739413 2.310668,-1.756108 3.050082,-3.050082 l 1.478828,-2.541734 7.070645,-12.246544 c 0.739415,-1.293974 1.109121,-2.726588 1.109121,-4.159203 H 59.070677 l 5.408812,10.629076 z"
     fill="#ea4335"
     id="path6"
     style="stroke-width:0.924268" />
  <path
     d="M 44.145607,30.12707 56.854284,8.1295072 C 55.606523,7.3900933 54.173909,7.0203864 52.695081,7.0203864 H 35.596134 c -1.478827,0 -2.911442,0.4159203 -4.159203,1.1091208 z"
     fill="#00832d"
     id="path8"
     style="stroke-width:0.924268" />
  <path
     d="M 59.072525,56.006556 H 29.218689 L 16.510013,78.004119 c 1.247761,0.739415 2.680376,1.109121 4.159203,1.109121 h 46.952783 c 1.478827,0 2.911442,-0.415919 4.159203,-1.109121 z"
     fill="#2684fc"
     id="path10"
     style="stroke-width:0.924268" />
  <path
     d="M 71.642562,31.513472 59.904366,11.179589 C 59.164952,9.8856153 58.102044,8.8689211 56.854284,8.1295072 L 44.145607,30.12707 59.072525,56.006556 h 25.37114 c 0,-1.432614 -0.369708,-2.865229 -1.109121,-4.159203 z"
     fill="#ffba00"
     id="path12"
     style="stroke-width:0.924268" />
</svg>
