<?xml version="1.0" encoding="UTF-8" standalone="no"?>
<svg
   width="1024"
   height="1024"
   viewBox="0 0 1024 1024"
   fill="none"
   version="1.1"
   id="svg4"
   sodipodi:docname="github.svg"
   inkscape:version="1.1.1 (3bf5ae0d25, 2021-09-20)"
   xmlns:inkscape="http://www.inkscape.org/namespaces/inkscape"
   xmlns:sodipodi="http://sodipodi.sourceforge.net/DTD/sodipodi-0.dtd"
   xmlns="http://www.w3.org/2000/svg"
   xmlns:svg="http://www.w3.org/2000/svg">
  <defs
     id="defs8" />
  <sodipodi:namedview
     id="namedview6"
     pagecolor="#878787"
     bordercolor="#666666"
     borderopacity="1.0"
     inkscape:pageshadow="2"
     inkscape:pageopacity="0"
     inkscape:pagecheckerboard="0"
     showgrid="false"
     inkscape:zoom="0.70214844"
     inkscape:cx="512"
     inkscape:cy="512"
     inkscape:window-width="1920"
     inkscape:window-height="1131"
     inkscape:window-x="0"
     inkscape:window-y="32"
     inkscape:window-maximized="1"
     inkscape:current-layer="svg4" />
  <circle
     style="fill:#ffffff;fill-opacity:1;stroke:none;stroke-width:1.9473"
     id="path843"
     cx="512"
     cy="512"
     r="512" />
  <path
     fill-rule="evenodd"
     clip-rule="evenodd"
     d="m 514.05643,74.813283 c -242.39421,0 -438.722546,196.328347 -438.722546,438.722557 0,194.13473 125.584326,358.10728 299.976546,416.23802 21.93612,3.83882 30.16217,-9.32285 30.16217,-20.83932 0,-10.41966 -0.5484,-44.96907 -0.5484,-81.71208 -110.22904,20.29092 -138.74601,-26.87175 -147.52046,-51.54989 -4.93563,-12.61328 -26.32336,-51.54991 -44.96907,-61.96957 -15.35529,-8.22604 -37.29141,-28.51696 -0.5484,-29.06536 34.5494,-0.54841 59.22755,31.80738 67.4536,44.96906 39.48503,66.35678 102.55139,47.71107 127.77794,36.19461 3.83882,-28.51697 15.35529,-47.71108 27.96856,-58.67915 C 337.4706,696.1541 235.46761,658.31428 235.46761,490.50291 c 0,-47.71108 17.0005,-87.19611 44.96906,-117.90669 -4.38722,-10.96806 -19.74251,-55.93713 4.38723,-116.26148 0,0 36.74301,-11.51646 120.6487,44.96906 35.0978,-9.87125 72.38922,-14.80688 109.68064,-14.80688 37.29141,0 74.58283,4.93563 109.68064,14.80688 83.90568,-57.03392 120.6487,-44.96906 120.6487,-44.96906 24.12973,60.32435 8.77444,105.29342 4.38723,116.26148 27.96855,30.71058 44.96906,69.6472 44.96906,117.90669 0,168.35977 -102.5514,205.65119 -200.16717,216.61925 15.90369,13.71009 29.61377,40.03344 29.61377,81.16367 0,58.67915 -0.54841,105.84182 -0.54841,120.64871 0,11.51647 8.22606,25.22654 30.16218,20.83932 173.29541,-58.13074 298.87974,-222.6517 298.87974,-416.23802 0,-242.39421 -196.32834,-438.722557 -438.72255,-438.722557 z"
     fill="#1b1f23"
     id="path2"
     style="stroke-width:54.8403" />
</svg>
