<?xml version="1.0" encoding="UTF-8" standalone="no"?>
<svg
   viewBox="0 0 99.31 103.33"
   version="1.1"
   id="svg8"
   sodipodi:docname="guru.svg"
   inkscape:version="1.1.1 (3bf5ae0d25, 2021-09-20)"
   xmlns:inkscape="http://www.inkscape.org/namespaces/inkscape"
   xmlns:sodipodi="http://sodipodi.sourceforge.net/DTD/sodipodi-0.dtd"
   xmlns="http://www.w3.org/2000/svg"
   xmlns:svg="http://www.w3.org/2000/svg"
   xmlns:rdf="http://www.w3.org/1999/02/22-rdf-syntax-ns#"
   xmlns:cc="http://creativecommons.org/ns#"
   xmlns:dc="http://purl.org/dc/elements/1.1/">
  <defs
     id="defs12" />
  <sodipodi:namedview
     id="namedview10"
     pagecolor="#ffffff"
     bordercolor="#666666"
     borderopacity="1.0"
     inkscape:pageshadow="2"
     inkscape:pageopacity="0.0"
     inkscape:pagecheckerboard="0"
     showgrid="false"
     inkscape:zoom="6.9582889"
     inkscape:cx="49.653012"
     inkscape:cy="51.665001"
     inkscape:window-width="1920"
     inkscape:window-height="1131"
     inkscape:window-x="0"
     inkscape:window-y="32"
     inkscape:window-maximized="1"
     inkscape:current-layer="Layer_1-2" />
  <title
     id="title2">Asset 3</title>
  <g
     id="Layer_2"
     data-name="Layer 2">
    <g
       id="Layer_1-2"
       data-name="Layer 1">
      <path
         d="M 92.947793,51.453366 86.941979,28.781634 C 82.466705,11.865104 65.648631,1.9299982 49.349687,6.5842818 L 27.564059,12.849664 C 11.336722,17.494997 1.7864896,34.975412 6.2707129,51.909844 l 5.9968651,22.671732 c 4.475272,16.916531 21.293346,26.851634 37.59229,22.188402 L 71.645496,90.504596 C 87.872835,85.868213 97.423067,68.369897 92.947793,51.453366 Z M 57.628942,74.912746 A 23.038704,23.038704 0 0 1 49.466044,76.434338 20.586254,20.586254 0 0 1 43.952509,75.691443 25.240537,25.240537 0 0 1 32.826981,34.080357 23.13716,23.13716 0 0 1 49.385489,26.919921 c 11.170281,0.125308 17.90109,8.619375 18.21436,8.950546 a 2.4076967,2.4076967 0 0 1 -0.322219,3.28485 2.1928836,2.1928836 0 0 1 -3.159544,-0.34012 c -0.0537,-0.07161 -5.76415,-7.160438 -14.7863,-7.258893 h -0.179011 a 18.796146,18.796146 0 0 0 -13.175204,5.835755 20.076074,20.076074 0 0 0 -5.620942,14.320873 20.51465,20.51465 0 0 0 14.75945,19.467436 17.757882,17.757882 0 0 0 10.964418,-0.653389 c 4.475273,-1.682703 8.673079,-5.522488 10.01566,-9.908254 a 44.878034,44.878034 0 0 0 4.9228,-3.222196 c 0.241665,8.010738 -6.489145,14.893707 -13.390015,17.516217 z M 76.326631,49.37684 a 39.489807,39.489807 0 0 1 -5.737299,5.128662 30.601915,30.601915 0 0 1 -4.072499,2.586708 19.485338,19.485338 0 0 1 -9.442825,2.559856 c -5.987914,-0.134258 -8.180799,-3.580219 -8.225551,-6.748712 a 6.2653819,6.2653819 0 0 1 1.6648,-4.502124 c 1.441039,-1.521593 3.580219,-2.29134 6.435443,-2.29134 a 16.835976,16.835976 0 0 1 11.223984,4.475273 36.294462,36.294462 0 0 0 4.860146,-4.358915 2.1749825,2.1749825 0 0 1 3.168493,-0.125308 2.3897956,2.3897956 0 0 1 0.125308,3.2759 z m -22.618028,2.273438 a 1.5663454,1.5663454 0 0 0 -0.402775,1.226225 c 0,1.700603 2.103378,2.112328 3.839784,2.148131 A 14.589389,14.589389 0 0 0 64.109137,53.180821 13.040945,13.040945 0 0 0 56.9487,50.799977 c -2.076526,-0.04476 -2.917877,0.519131 -3.240097,0.850301 z"
         id="path4"
         style="fill:#00c488;fill-opacity:1;stroke-width:0.895054" />
    </g>
  </g>
  <metadata
     id="metadata829">
    <rdf:RDF>
      <cc:Work
         rdf:about="">
        <dc:title>Asset 3</dc:title>
      </cc:Work>
    </rdf:RDF>
  </metadata>
</svg>
