<?xml version="1.0" encoding="UTF-8" standalone="no"?>
<svg
   viewBox="0 0 60 66"
   fill="#fff"
   fill-rule="evenodd"
   stroke="#000"
   stroke-linecap="round"
   stroke-linejoin="round"
   version="1.1"
   id="svg7"
   sodipodi:docname="lingo.svg"
   inkscape:version="1.1.1 (3bf5ae0d25, 2021-09-20)"
   xmlns:inkscape="http://www.inkscape.org/namespaces/inkscape"
   xmlns:sodipodi="http://sodipodi.sourceforge.net/DTD/sodipodi-0.dtd"
   xmlns:xlink="http://www.w3.org/1999/xlink"
   xmlns="http://www.w3.org/2000/svg"
   xmlns:svg="http://www.w3.org/2000/svg">
  <defs
     id="defs11" />
  <sodipodi:namedview
     id="namedview9"
     pagecolor="#ffffff"
     bordercolor="#666666"
     borderopacity="1.0"
     inkscape:pageshadow="2"
     inkscape:pageopacity="0.0"
     inkscape:pagecheckerboard="0"
     showgrid="false"
     inkscape:zoom="10.893939"
     inkscape:cx="29.970793"
     inkscape:cy="33"
     inkscape:window-width="1920"
     inkscape:window-height="1131"
     inkscape:window-x="0"
     inkscape:window-y="32"
     inkscape:window-maximized="1"
     inkscape:current-layer="svg7" />
  <use
     xlink:href="#A"
     x="0.5"
     y="0.5"
     id="use2"
     transform="matrix(0.80649422,0,0,0.80649422,6.2069619,6.73328)"
     width="100%"
     height="100%" />
  <symbol
     id="A"
     overflow="visible">
    <path
       d="M36.326 7.245a2.95 2.95 0 1 1-5.9-.005 2.95 2.95 0 0 1 5.037-2.083 2.95 2.95 0 0 1 .863 2.088zm22 0a2.95 2.95 0 1 1-5.9-.005 2.95 2.95 0 0 1 5.037-2.083 2.95 2.95 0 0 1 .863 2.088zm0 24.76a2.95 2.95 0 1 1-5.9-.005 2.95 2.95 0 0 1 5.037-2.083 2.95 2.95 0 0 1 .863 2.088zm0 24.762a2.95 2.95 0 1 1-5.9-.005 2.95 2.95 0 0 1 5.037-2.083 2.95 2.95 0 0 1 .863 2.088zm-22-24.76a2.95 2.95 0 1 1-5.9-.005 2.95 2.95 0 0 1 5.037-2.083 2.95 2.95 0 0 1 .863 2.087zM.014 56.851c0-3.994 3.158-7.323 7.148-7.323s7.23 3.33 7.23 7.323c0 3.9-3.242 7.156-7.23 7.156S.014 60.761.014 56.851zm0-24.762c0-3.994 3.158-7.323 7.148-7.323s7.23 3.33 7.23 7.323c0 3.9-3.242 7.156-7.23 7.156S.014 35.999.014 32.089zm.137-26.24c.822-3.9 4.597-6.515 8.5-5.7s6.4 4.75 5.568 8.657c-.804 3.827-4.645 6.334-8.547 5.5A7.15 7.15 0 0 1 .151 5.85zm26.036 51c0-3.994 3.158-7.323 7.148-7.323s7.23 3.33 7.23 7.323c0 3.9-3.242 7.156-7.23 7.156s-7.148-3.246-7.148-7.156z"
       stroke="none"
       fill="#ff6161"
       id="path4" />
  </symbol>
</svg>
