<svg xmlns="http://www.w3.org/2000/svg" width="2243" height="2500" viewBox="0 0 221.541 246.961"><path fill="#78C800" d="M74.771 0c20.405 0 25.259 27.112 65.513 27.112 25.402 0 26.825-10.501 38.533-10.501 4.786 0 7.507 9.16 7.507 15.267 0 24.138-6.197 51.123-2.172 51.123 5.275 0 26.696-13.832 32.248-13.832 5.275 0 5.136 4.095 5.136 6.385s1.621 42.287-52.514 73.797c-2.36 1.388-13.835 51.354-54.274 51.354-27.021 0-47.564-14.617-55.431-49.597C57.744 143.891 0 121.126 0 70.97c0-11.012 2.776-17.027 7.033-17.027 10.643 0 33.407 17.86 43.216 17.86 8.49 0 7.125-18.508 7.125-24.06C57.374 42.193 56.911 0 74.771 0z"/><path fill="#8EE000" d="M168.671 35.597c-3.678 0-4.567 1.898-5.873.712-.593-.593 2.552-1.958 2.552-2.551 0-.297-.476-.237-1.127-.237-3.856 0-11.45 5.636-12.519 5.636-.475 0-1.246.119-1.246-.593 0-1.602 5.399-2.966 1.661-2.966s-9.255 4.806-15.01 4.806c-11.866 0-21.417-9.314-21.417-7.001 0 .831 1.365 2.136 2.254 3.797 0 0 .534 2.492-.475 1.543-10.888-10.887-21.773-13.527-21.773-13.527s-.831 0-.831.356c0 1.246 2.373 2.907 2.373 3.382 0 .475-.297.771-.771.771-2.314 0-3.976-4.45-13.289-4.45-14.062 0-17.935 22.129-17.935 40.284 0 25.748 16.569 33.929 30.274 33.929 10.869 0 22.506-6.407 27.376-15.816l14.464 1.102s7.091 13.439 19.846 13.439c11.971 0 22.381-7.574 22.381-33.842.002-27.587-7.235-28.774-10.915-28.774z"/><ellipse fill="#FFF" cx="94.04" cy="66.637" rx="18.508" ry="22.503"/><path fill="#FFF" d="M172.817 70.885c-.586 10.932-7.978 19.562-16.509 19.275-8.532-.287-14.975-9.382-14.389-20.315.586-10.932 7.978-19.562 16.51-19.275 8.532.287 14.974 9.382 14.388 20.315z"/><ellipse fill="#3F3F3F" cx="93.659" cy="66.637" rx="10.167" ry="12.362"/><ellipse fill="#FFF" cx="87.069" cy="58.795" rx="4.762" ry="5.145"/><path fill="#3F3F3F" d="M165.846 70.882c-.466 6.427-4.761 11.449-9.594 11.218-4.833-.231-8.375-5.629-7.91-12.056.465-6.427 4.76-11.449 9.593-11.218 4.833.231 8.375 5.629 7.911 12.056z"/><path fill="#71B200" d="M117.695 92.576s-2.973 24.88 5.168 24.708c8.141-.172 7.794-12.094 7.743-12.236-.05-.143-12.911-12.472-12.911-12.472z"/><path fill="#FFF" d="M155.753 63.398c.083 2.62-1.743 4.803-4.081 4.875-2.337.072-4.298-1.994-4.381-4.615s1.744-4.803 4.081-4.875c2.336-.071 4.298 1.995 4.381 4.615z"/><path fill="#71B200" d="M212.297 107.839c-10.693 15.602-33.077 27.912-36.751 27.912-4.163 0-1.296-4.442-4.257-4.442-2.684 0-3.238 46.727-51.081 46.727-53.765 0-52.562-55.611-57.744-55.611-3.794 0-1.296 8.143-5.366 8.143-13.6 0-49.818-27.486-55.838-47.016 8.444 41.452 56.624 60.975 58.059 67.559 7.866 34.98 28.409 49.596 55.431 49.596 40.439 0 51.914-49.966 54.274-51.354 22.343-13.007 35.511-28.104 43.273-41.514z"/><path fill="#F49000" d="M117.696 90.033s-1.75 18.193 7.107 18.193c8.856 0 13.26-7.266 13.26-13.79 0-6.524-20.367-4.403-20.367-4.403z"/><path fill="#FFC200" d="M131.01 79.266c6.443 0 11.297 7.479 11.297 14.878s-6.047 14.957-8.036 14.957-16.628-13.605-16.628-19.413 5.569-10.422 13.367-10.422z"/><ellipse transform="rotate(-86.836 130.79 83.6)" fill="#FFF3B8" cx="130.794" cy="83.602" rx="2.334" ry="4.28"/><path fill="#D98500" d="M106.762 207.465c6.919-.363 11.884 1.11 12.209 7.321.324 6.212-8.104 7.837-12.585 8.071s-9.555-1.785-9.789-6.268c-.235-4.479 3.915-8.796 10.165-9.124zM149.27 194.764c6.604-.346 6.743 6.82 6.771 7.371.029.55.706 7.451-10.851 8.059-7.312.383-7.09-2.9-7.174-4.512s2.88-10.478 11.254-10.918z"/><ellipse fill="#E0E0E0" cx="114.908" cy="241.382" rx="59.633" ry="5.579"/></svg>