<?xml version="1.0" encoding="UTF-8" standalone="no"?>
<svg
   height="2150"
   viewBox="-49.56 -4.19 761.3924 800.0937"
   width="2150"
   version="1.1"
   id="svg4"
   sodipodi:docname="mattermost.svg"
   inkscape:version="1.1.1 (3bf5ae0d25, 2021-09-20)"
   xmlns:inkscape="http://www.inkscape.org/namespaces/inkscape"
   xmlns:sodipodi="http://sodipodi.sourceforge.net/DTD/sodipodi-0.dtd"
   xmlns="http://www.w3.org/2000/svg"
   xmlns:svg="http://www.w3.org/2000/svg">
  <defs
     id="defs8" />
  <sodipodi:namedview
     id="namedview6"
     pagecolor="#ffffff"
     bordercolor="#666666"
     borderopacity="1.0"
     inkscape:pageshadow="2"
     inkscape:pageopacity="0.0"
     inkscape:pagecheckerboard="0"
     showgrid="false"
     fit-margin-top="0"
     fit-margin-left="0"
     fit-margin-right="0"
     fit-margin-bottom="0"
     inkscape:zoom="0.3147986"
     inkscape:cx="1056.2309"
     inkscape:cy="1342.128"
     inkscape:window-width="1920"
     inkscape:window-height="1131"
     inkscape:window-x="0"
     inkscape:window-y="32"
     inkscape:window-maximized="1"
     inkscape:current-layer="svg4" />
  <path
     d="M 677.69891,511.51308 C 612.67533,702.77133 404.27466,805.33185 212.22634,740.59305 20.168945,675.84508 -82.814223,468.31714 -17.799762,277.05888 35.11573,121.39001 183.0034,24.497749 339.76553,28.723638 L 289.51419,87.840156 C 196.52625,104.58754 116.22522,167.82882 84.668877,260.66977 37.715569,398.80125 116.41813,550.14322 260.45661,598.70421 404.49514,647.25601 559.32807,574.65338 606.29057,436.52191 637.74588,343.98411 612.80394,245.53008 549.60852,176.005 L 545.7501,98.386507 C 672.42574,189.95044 730.52253,356.11058 677.69891,511.51308 Z M 422.10607,411.24007 c -34.75334,33.89898 -77.44402,30.80306 -105.20627,21.44179 -27.77145,-9.37045 -63.57208,-32.72308 -70.49887,-80.67774 -6.92679,-47.95467 24.41829,-86.91553 24.41829,-86.91553 l 68.30324,-84.58211 39.77848,-48.31293 34.14703,-42.102647 c 0,0 15.67254,-20.899782 20.13728,-25.208352 0.88193,-0.863551 1.79142,-1.423941 2.68252,-1.855717 l 0.65227,-0.321535 0.11023,-0.04594 c 1.88329,-0.808431 4.04217,-0.982979 6.12755,-0.275601 2.04863,0.689003 3.62874,2.085383 4.6301,3.8033 l 0.2113,0.339909 0.18373,0.385841 c 0.48689,0.909486 0.89111,1.956771 1.08403,3.252099 0.90949,6.12754 0.61552,32.217813 0.61552,32.217813 l 1.44231,54.09132 2.13131,62.44211 2.66415,108.51349 c 0,0 1.13915,49.90226 -33.6142,83.81043 z"
     fill="#1875f0"
     id="path2"
     style="stroke-width:0.918672" />
</svg>
