<?xml version="1.0" encoding="UTF-8" standalone="no"?>
<svg
   height="2500"
   width="2500"
   viewBox="12 0.18999999999999906 487.619 510.941"
   version="1.1"
   id="svg4"
   sodipodi:docname="notion.svg"
   inkscape:version="1.1.1 (3bf5ae0d25, 2021-09-20)"
   xmlns:inkscape="http://www.inkscape.org/namespaces/inkscape"
   xmlns:sodipodi="http://sodipodi.sourceforge.net/DTD/sodipodi-0.dtd"
   xmlns="http://www.w3.org/2000/svg"
   xmlns:svg="http://www.w3.org/2000/svg">
  <defs
     id="defs8" />
  <sodipodi:namedview
     id="namedview6"
     pagecolor="#c5c5c5"
     bordercolor="#666666"
     borderopacity="1.0"
     inkscape:pageshadow="2"
     inkscape:pageopacity="0"
     inkscape:pagecheckerboard="0"
     showgrid="false"
     inkscape:zoom="0.2876"
     inkscape:cx="1250"
     inkscape:cy="1256.9541"
     inkscape:window-width="1920"
     inkscape:window-height="1131"
     inkscape:window-x="0"
     inkscape:window-y="32"
     inkscape:window-maximized="1"
     inkscape:current-layer="svg4" />
  <g
     id="g1056"
     transform="matrix(0.49896582,0,0,0.49896582,0.339,0.19)">
    <circle
       style="fill:#ffffff;fill-opacity:1;stroke:none;stroke-width:1.9473"
       id="path843"
       cx="512"
       cy="512"
       r="512" />
  </g>
  <path
     d="m 141.79265,130.66988 c 11.20056,9.10001 15.40237,8.40574 36.43547,7.00229 l 198.28606,-11.90616 c 4.20534,0 0.70846,-4.19543 -0.69428,-4.89255 L 342.88912,97.066807 C 336.57897,92.16789 328.17254,86.557691 312.06031,87.961126 L 120.05959,101.96502 c -7.0023,0.69427 -8.40077,4.19542 -5.61232,7.00158 z m 11.90476,46.21063 v 208.63153 c 0,11.2126 5.60311,15.40732 18.21419,14.71375 l 217.91644,-12.60966 c 12.61747,-0.69357 14.02302,-8.40574 14.02302,-17.51425 V 162.87026 c 0,-9.09364 -3.49832,-13.99752 -11.22181,-13.29758 l -227.7249,13.29758 c -8.40432,0.70631 -11.20764,4.91024 -11.20764,14.01025 z m 215.12658,11.19136 c 1.39705,6.30731 0,12.60896 -6.31936,13.3181 l -10.4992,2.09205 v 154.02507 c -9.11631,4.89963 -17.52275,7.70083 -24.52788,7.70083 -11.21544,0 -14.02443,-3.50328 -22.42522,-13.99893 L 236.37256,243.3903 v 104.31755 l 21.73307,4.90387 c 0,0 0,12.5962 -17.5341,12.5962 l -48.33739,2.80404 c -1.40414,-2.80404 0,-9.79925 4.90318,-11.20056 l 12.6139,-3.49619 V 215.3875 l -17.51353,-1.40344 c -1.40485,-6.30731 2.09345,-15.40166 11.91042,-16.10728 l 51.85484,-3.49548 71.4746,109.22213 v -96.62097 l -18.22341,-2.09133 c -1.39847,-7.71075 4.19898,-13.3096 11.20694,-14.00389 z M 103.93886,83.062918 303.65031,68.35554 c 24.52505,-2.103383 30.8352,-0.69428 46.24961,10.50274 l 63.75039,44.80717 c 10.51903,7.70508 14.02514,9.80281 14.02514,18.20216 v 245.74852 c 0,15.40166 -5.6109,24.51017 -25.22641,25.90369 l -231.92528,14.0053 c -14.7251,0.70208 -21.73306,-1.39635 -29.44452,-11.2041 L 94.132545,355.4101 C 85.721142,344.19748 82.222827,335.80947 82.222827,325.99605 V 107.55821 c 0,-12.594785 5.612324,-23.101068 21.716033,-24.495292 z"
     fill-rule="evenodd"
     id="path2"
     style="stroke-width:0.708449" />
</svg>
