<?xml version="1.0" encoding="UTF-8" standalone="no"?>
<svg
   viewBox="0 0 64 64"
   fill="#ffffff"
   fill-rule="evenodd"
   stroke="#000000"
   stroke-linecap="round"
   stroke-linejoin="round"
   version="1.1"
   id="svg13"
   sodipodi:docname="pingboard.svg"
   width="64"
   height="64"
   inkscape:version="1.1.1 (3bf5ae0d25, 2021-09-20)"
   xmlns:inkscape="http://www.inkscape.org/namespaces/inkscape"
   xmlns:sodipodi="http://sodipodi.sourceforge.net/DTD/sodipodi-0.dtd"
   xmlns:xlink="http://www.w3.org/1999/xlink"
   xmlns="http://www.w3.org/2000/svg"
   xmlns:svg="http://www.w3.org/2000/svg">
  <defs
     id="defs17" />
  <sodipodi:namedview
     id="namedview15"
     pagecolor="#ffffff"
     bordercolor="#666666"
     borderopacity="1.0"
     inkscape:pageshadow="2"
     inkscape:pageopacity="0.0"
     inkscape:pagecheckerboard="0"
     showgrid="false"
     inkscape:zoom="10.893939"
     inkscape:cx="28.961057"
     inkscape:cy="33"
     inkscape:window-width="1920"
     inkscape:window-height="1131"
     inkscape:window-x="0"
     inkscape:window-y="32"
     inkscape:window-maximized="1"
     inkscape:current-layer="svg13" />
  <use
     xlink:href="#A"
     x="0.5"
     y="0.5"
     id="use2"
     width="100%"
     height="100%"
     transform="matrix(0.77892086,0,0,0.77892086,10.275247,7.39102)" />
  <symbol
     id="A"
     overflow="visible">
    <g
       stroke="none"
       fill-rule="nonzero"
       id="g10">
      <path
         d="M 6.895,30.168 56.889,42.666 V 21.33 A 9.1,9.1 0 0 0 49.994,12.5 L 0,0 v 21.338 a 9.1,9.1 0 0 0 6.895,8.83"
         fill="#ffb715"
         id="path4" />
      <path
         d="M 28.445,49.778 0,56.9 V 46.22 a 4.55,4.55 0 0 1 3.447,-4.415 l 24.998,-6.249 z"
         fill="#0c7fe4"
         id="path6" />
      <path
         d="M 53.442,57.75 28.445,64 V 49.778 l 28.444,-7.1 v 10.67 a 4.55,4.55 0 0 1 -3.447,4.415"
         fill="#00aee6"
         id="path8" />
    </g>
  </symbol>
</svg>
