<?xml version="1.0" encoding="UTF-8" standalone="no"?>
<svg
   width="256"
   height="256"
   viewBox="0 0 256 256"
   version="1.1"
   preserveAspectRatio="xMidYMid"
   id="svg6"
   sodipodi:docname="rollbar.svg"
   inkscape:version="1.1.1 (3bf5ae0d25, 2021-09-20)"
   xmlns:inkscape="http://www.inkscape.org/namespaces/inkscape"
   xmlns:sodipodi="http://sodipodi.sourceforge.net/DTD/sodipodi-0.dtd"
   xmlns="http://www.w3.org/2000/svg"
   xmlns:svg="http://www.w3.org/2000/svg">
  <defs
     id="defs10" />
  <sodipodi:namedview
     id="namedview8"
     pagecolor="#ffffff"
     bordercolor="#666666"
     borderopacity="1.0"
     inkscape:pageshadow="2"
     inkscape:pageopacity="0.0"
     inkscape:pagecheckerboard="0"
     showgrid="false"
     height="256px"
     inkscape:zoom="1.6799065"
     inkscape:cx="200.30876"
     inkscape:cy="171.73574"
     inkscape:window-width="1920"
     inkscape:window-height="1131"
     inkscape:window-x="0"
     inkscape:window-y="32"
     inkscape:window-maximized="1"
     inkscape:current-layer="svg6" />
  <g
     id="g4"
     transform="matrix(0.77186414,0,0,0.77186414,24.408917,45.761548)">
    <path
       d="m 256,6.3540782 c -0.004,-0.4116536 -0.0447,-0.8221245 -0.12264,-1.2263473 0,-0.1226347 -0.0613,-0.233006 -0.0981,-0.3556407 -0.0368,-0.1226347 -0.15943,-0.5518563 -0.25754,-0.8216527 l -0.18395,-0.3924311 c -0.11424,-0.234068 -0.2454,-0.4594958 -0.39243,-0.6744911 -0.0858,-0.1348982 -0.17169,-0.2697964 -0.2698,-0.4046946 l -0.17168,-0.233006 c -0.0981,-0.1103712 -0.20848,-0.1962155 -0.30659,-0.2943233 L 253.952,1.657168 253.75578,1.5222698 c -0.17972,-0.153685 -0.36807,-0.2969917 -0.56412,-0.4292215 L 252.71339,0.78646145 C 252.50257,0.67594449 252.28556,0.57767366 252.06342,0.4921381 l -0.51506,-0.20847905 c -0.23301,-0.0735808 -0.47828,-0.11037126 -0.71128,-0.15942515 l -0.52733,-0.11037125 c -0.28994,-0.01848353 -0.58077,-0.01848353 -0.87071,0 H 248.9485 C 245.66189,0.308186 202.23693,4.4532399 153.42831,26.220905 c -29.3097,13.036071 -51.99712,33.050059 -66.271807,57.344 l -3.679042,1.594251 C 31.222802,108.48428 0,153.82234 0,206.4449 v 0.88297 c 0,2.47284 1.4371361,4.72039 3.6790419,5.76384 0.8427726,0.38621 1.7586506,0.58873 2.6857006,0.58873 H 179.83157 c 0.33711,0 0.67369,-0.0269 1.0056,-0.0859 l 0.44149,-0.11037 c 0.20848,-0.0613 0.41696,-0.0981 0.62544,-0.17169 0.20847,-0.0736 0.30658,-0.14716 0.46601,-0.22074 0.15942,-0.0736 0.3679,-0.14717 0.53959,-0.24527 0.32378,-0.19125 0.63139,-0.40863 0.91976,-0.64997 l 69.9018,-58.93825 c 1.44703,-1.21606 2.27468,-3.01532 2.25648,-4.90539 V 6.3540782 Z m -63.20594,181.6343018 -6.70812,5.65346 V 68.247827 L 243.28278,20.040114 V 145.43413 Z M 78.596599,154.7421 h 94.772121 v 46.22103 H 23.754347 Z M 158.59123,37.846677 c 22.33893,-9.835873 45.70678,-17.14527 69.66879,-21.792192 L 177.1336,59.160593 c -23.59929,2.879485 -46.81044,8.345043 -69.21504,16.298156 12.65591,-15.451976 29.72666,-28.267306 50.67267,-37.612072 z M 95.765461,93.743587 C 120.66262,83.495148 146.72619,76.349083 173.36872,72.466461 V 142.02488 H 82.76618 c 0.653349,-16.8656 5.096348,-33.36757 12.999281,-48.281293 z m -17.450922,8.118423 c -5.358226,13.90391 -8.206632,28.64836 -8.412743,43.54759 L 13.48982,193.0164 c 4.267689,-38.67899 27.237174,-71.03003 64.824719,-91.15439 z"
       fill="#3c72ff"
       id="path2" />
  </g>
</svg>
