<?xml version="1.0" encoding="UTF-8" standalone="no"?>
<svg
   width="127"
   height="127"
   version="1.1"
   id="svg10"
   sodipodi:docname="slack.svg"
   inkscape:version="1.1.1 (3bf5ae0d25, 2021-09-20)"
   xmlns:inkscape="http://www.inkscape.org/namespaces/inkscape"
   xmlns:sodipodi="http://sodipodi.sourceforge.net/DTD/sodipodi-0.dtd"
   xmlns="http://www.w3.org/2000/svg"
   xmlns:svg="http://www.w3.org/2000/svg">
  <defs
     id="defs14" />
  <sodipodi:namedview
     id="namedview12"
     pagecolor="#ffffff"
     bordercolor="#666666"
     borderopacity="1.0"
     inkscape:pageshadow="2"
     inkscape:pageopacity="0.0"
     inkscape:pagecheckerboard="0"
     showgrid="false"
     inkscape:zoom="5.6614173"
     inkscape:cx="63.5"
     inkscape:cy="63.5"
     inkscape:window-width="1920"
     inkscape:window-height="1131"
     inkscape:window-x="0"
     inkscape:window-y="32"
     inkscape:window-maximized="1"
     inkscape:current-layer="svg10" />
  <path
     d="m 31.297212,77.851392 c 0,6.537943 -5.284091,11.822034 -11.822034,11.822034 -6.537944,0 -11.8220346,-5.284091 -11.8220346,-11.822034 0,-6.537943 5.2840906,-11.822034 11.8220346,-11.822034 h 11.822034 z m 5.911017,0 c 0,-6.537943 5.284091,-11.822034 11.822034,-11.822034 6.537943,0 11.822034,5.284091 11.822034,11.822034 v 29.555088 c 0,6.53794 -5.284091,11.82204 -11.822034,11.82204 -6.537943,0 -11.822034,-5.2841 -11.822034,-11.82204 z"
     fill="#e01e5a"
     id="path2"
     style="stroke-width:0.895609" />
  <path
     d="m 49.030263,30.384134 c -6.537943,0 -11.822034,-5.284091 -11.822034,-11.822034 0,-6.537943 5.284091,-11.8220342 11.822034,-11.8220342 6.537943,0 11.822034,5.2840912 11.822034,11.8220342 v 11.822034 z m 0,6.000578 c 6.537943,0 11.822034,5.284091 11.822034,11.822034 0,6.537943 -5.284091,11.822034 -11.822034,11.822034 H 19.385617 c -6.537943,0 -11.8220345,-5.284091 -11.8220345,-11.822034 0,-6.537943 5.2840915,-11.822034 11.8220345,-11.822034 z"
     fill="#36c5f0"
     id="path4"
     style="stroke-width:0.895609" />
  <path
     d="m 96.407961,48.206746 c 0,-6.537943 5.284089,-11.822034 11.822029,-11.822034 6.53794,0 11.82204,5.284091 11.82204,11.822034 0,6.537943 -5.2841,11.822034 -11.82204,11.822034 H 96.407961 Z m -5.911018,0 c 0,6.537943 -5.284091,11.822034 -11.822034,11.822034 -6.537943,0 -11.822034,-5.284091 -11.822034,-11.822034 V 18.5621 c 0,-6.537943 5.284091,-11.8220342 11.822034,-11.8220342 6.537943,0 11.822034,5.2840912 11.822034,11.8220342 z"
     fill="#2eb67d"
     id="path6"
     style="stroke-width:0.895609" />
  <path
     d="m 78.674909,95.584444 c 6.537943,0 11.822034,5.284086 11.822034,11.822036 0,6.53794 -5.284091,11.82204 -11.822034,11.82204 -6.537943,0 -11.822034,-5.2841 -11.822034,-11.82204 V 95.584444 Z m 0,-5.911018 c -6.537943,0 -11.822034,-5.284091 -11.822034,-11.822034 0,-6.537943 5.284091,-11.822034 11.822034,-11.822034 h 29.644641 c 6.53795,0 11.82204,5.284091 11.82204,11.822034 0,6.537943 -5.28409,11.822034 -11.82204,11.822034 z"
     fill="#ecb22e"
     id="path8"
     style="stroke-width:0.895609" />
</svg>
