<?xml version="1.0" encoding="UTF-8" standalone="no"?>
<!-- Created with Inkscape (http://www.inkscape.org/) -->

<svg
   version="1.1"
   id="svg2"
   xml:space="preserve"
   width="1000"
   height="1000"
   viewBox="0 0 1000 1000"
   sodipodi:docname="talentlms.svg"
   inkscape:version="1.1.1 (3bf5ae0d25, 2021-09-20)"
   xmlns:inkscape="http://www.inkscape.org/namespaces/inkscape"
   xmlns:sodipodi="http://sodipodi.sourceforge.net/DTD/sodipodi-0.dtd"
   xmlns="http://www.w3.org/2000/svg"
   xmlns:svg="http://www.w3.org/2000/svg"><defs
     id="defs6"><clipPath
       clipPathUnits="userSpaceOnUse"
       id="clipPath16"><path
         d="M 0,750 H 750 V 0 H 0 Z"
         id="path14" /></clipPath><clipPath
       clipPathUnits="userSpaceOnUse"
       id="clipPath32"><path
         d="M 0,154.723 H 750 V 308.752 H 0 Z"
         id="path30" /></clipPath></defs><sodipodi:namedview
     id="namedview4"
     pagecolor="#ffffff"
     bordercolor="#666666"
     borderopacity="1.0"
     inkscape:pageshadow="2"
     inkscape:pageopacity="0.0"
     inkscape:pagecheckerboard="0"
     showgrid="false"
     inkscape:zoom="0.719"
     inkscape:cx="500"
     inkscape:cy="500"
     inkscape:window-width="1920"
     inkscape:window-height="1131"
     inkscape:window-x="0"
     inkscape:window-y="32"
     inkscape:window-maximized="1"
     inkscape:current-layer="g10" /><g
     id="g8"
     inkscape:groupmode="layer"
     inkscape:label="talentlms-logo"
     transform="matrix(1.3333333,0,0,-1.3333333,0,1000)"><g
       id="g10"><g
         id="g12"
         clip-path="url(#clipPath16)"
         transform="matrix(1.1337903,0,0,1.1337903,-49.850077,-102.14902)"><g
           id="g18"
           transform="translate(355.3354,593.5122)"><path
             d="m 0,0 c -20.062,-4.093 -44.423,-16.991 -61.62,-32.551 -20.267,-18.833 -16.993,-17.197 -30.503,-13.306 -15.557,4.503 -43.809,3.071 -61.824,-3.276 -16.378,-5.732 -40.33,-21.29 -50.361,-32.959 -17.196,-19.859 -31.732,-60.802 -29.071,-81.478 1.229,-9.827 1.024,-10.032 -11.055,-24.567 -20.881,-24.976 -29.479,-48.109 -28.251,-76.565 l 0.614,-14.534 17.402,-4.709 c 5.821,-1.778 11.778,-3.079 17.811,-3.889 -0.073,2.472 -0.63,4.906 -1.639,7.164 -1.725,7.999 -2.209,16.216 -1.432,24.362 0.614,14.74 1.843,19.653 6.756,28.662 7.88,12.74 18.34,23.688 30.708,32.14 5.731,4.299 5.731,4.504 3.479,13.716 -10.235,40.944 11.668,86.187 48.518,100.106 21.859,8.881 46.385,8.512 67.967,-1.023 4.998,-2.103 10.126,-3.881 15.354,-5.323 1.024,0 4.299,3.89 7.37,8.803 8.188,12.897 29.684,32.756 42.581,39.306 29.747,15.517 65.316,14.978 94.579,-1.433 15.355,-8.188 37.26,-31.322 43.811,-46.061 4.094,-9.008 5.732,-10.851 8.598,-9.827 14.535,6.346 20.676,7.37 31.115,6.346 16.058,-1.989 30.946,-9.433 42.173,-21.085 13.511,-13.922 17.81,-24.362 18.835,-46.676 l 0.818,-18.629 13.101,-6.756 c 17.245,-9.803 31.368,-24.28 40.74,-41.762 3.889,-7.985 5.936,-16.788 7.37,-31.322 0.519,-7.161 1.545,-14.276 3.07,-21.291 1.433,-1.229 27.432,-3.481 28.66,-2.253 1.434,1.638 0.82,21.087 -1.228,35.621 -5.116,34.598 -14.74,50.361 -51.589,83.525 -6.551,5.938 -8.189,9.008 -10.85,21.905 -4.505,21.7 -12.079,36.441 -26.408,50.772 -18.072,18.373 -42.611,28.952 -68.378,29.479 -13.511,0 -15.968,1.433 -24.973,13.306 C 118.326,-27.228 80.862,-4.503 56.706,0 37.877,2.354 18.829,2.354 0,0"
             style="fill:#2169b2;fill-opacity:1;fill-rule:nonzero;stroke:none"
             id="path20" /></g><g
           id="g22"
           transform="translate(447.2549,407.0146)"><path
             d="m 0,0 c 2.69,-1.688 4.66,-4.314 5.527,-7.37 0,-5.937 -24.77,-29.071 -38.692,-36.03 -12.692,-6.142 -14.535,-6.553 -37.053,-6.553 -22.518,0 -24.362,0.41 -36.849,6.553 -13.915,6.648 -25.74,16.986 -34.189,29.887 -4.708,7.575 -4.913,8.189 -1.432,11.874 3.48,3.685 3.274,3.889 -5.733,3.889 -10.79,-0.313 -20.77,-5.798 -26.817,-14.74 -4.709,-6.345 -3.481,-9.826 1.842,-5.527 3.071,2.457 4.093,1.843 9.827,-5.321 3.479,-4.505 11.873,-13.718 18.628,-20.474 33.378,-34.457 86.013,-41.565 127.335,-17.196 16.222,11.031 30.71,24.417 42.991,39.716 3.48,4.913 4.709,5.732 6.962,3.685 1.161,-1.265 2.648,-2.185 4.299,-2.661 6.345,0 -8.599,17.81 -18.221,21.7 C 13.511,3.265 8.315,4.235 3.07,4.298 L -5.731,4.092 Z"
             style="fill:#ef7a20;fill-opacity:1;fill-rule:nonzero;stroke:none"
             id="path24" /></g></g></g></g></svg>
